<svg width="1072" height="1072" viewBox="0 0 1072 1072" fill="none" xmlns="http://www.w3.org/2000/svg">
<circle cx="536" cy="536" r="533.5" stroke="#F0F4F3" stroke-opacity="0.75" stroke-width="5" stroke-dasharray="20 20"/>
<path d="M1048 535.5C1048 818.546 818.546 1048 535.5 1048C252.454 1048 23 818.546 23 535.5C23 252.454 252.454 23 535.5 23C818.546 23 1048 252.454 1048 535.5Z" fill="white" fill-opacity="0.05"/>
<path d="M1045.5 535.5C1045.5 817.165 817.165 1045.5 535.5 1045.5C253.835 1045.5 25.5 817.165 25.5 535.5C25.5 253.835 253.835 25.5 535.5 25.5C817.165 25.5 1045.5 253.835 1045.5 535.5Z" stroke="#F0F4F3" stroke-opacity="0.75" stroke-width="5"/>
<path d="M146.071 298.545L162.241 278.502C171.512 267.011 178.269 259.663 182.51 256.459C188.559 251.854 195.267 249.512 202.634 249.432C209.955 249.316 216.945 251.944 223.603 257.316C230.306 262.724 234.412 268.973 235.92 276.062C237.382 283.114 236.346 290.371 232.81 297.833C230.225 303.276 223.893 312.245 213.812 324.74L208.017 331.922L254.805 369.671L246.692 379.726L146.071 298.545ZM163.965 296.381L198.167 323.975L212.114 307.108C217.669 300.222 221.119 294.687 222.463 290.501C223.762 286.279 223.756 282.133 222.446 278.065C221.09 273.96 218.68 270.509 215.214 267.713C211.839 264.99 208.025 263.419 203.772 262.999C199.473 262.542 195.517 263.34 191.903 265.393C188.325 267.4 183.796 271.802 178.314 278.596L163.965 296.381Z" fill="#F0F4F3" fill-opacity="0.75"/>
<path d="M238.926 244.748L248.429 236.522L257.575 247.088C256.806 240.469 257.111 234.779 258.492 230.019C259.835 225.214 262.212 221.335 265.623 218.382C268.193 216.157 271.649 214.599 275.992 213.707L277.929 225.748C275.251 226.593 273.247 227.592 271.918 228.742C268.817 231.427 266.939 235.3 266.284 240.362C265.591 245.38 266.811 251.221 269.945 257.885C272.36 263.002 278.994 271.829 289.847 284.366L311.016 308.819L301.514 317.046L238.926 244.748Z" fill="#F0F4F3" fill-opacity="0.75"/>
<path d="M391.986 217.075L403.693 216.607C404.09 224.091 403.387 230.722 401.582 236.501C399.777 242.28 397.007 247.5 393.271 252.161C389.505 256.772 384.578 260.835 378.49 264.352C364.993 272.147 351.89 273.828 339.18 269.395C326.441 264.911 316.848 257.088 310.401 245.925C304.335 235.422 302.15 224.2 303.847 212.258C305.979 197.088 313.895 185.547 327.595 177.635C341.7 169.488 356.056 168.335 370.662 174.177C381.015 178.279 389.51 185.958 396.147 197.215L321.712 240.204C327.483 249.727 335.124 255.87 344.636 258.631C354.118 261.342 363.223 260.178 371.95 255.137C376.161 252.705 379.821 249.61 382.929 245.853C386.087 242.067 388.359 238.15 389.743 234.103C391.127 230.055 391.875 224.379 391.986 217.075ZM379.107 194.775C374.404 189.913 369.701 186.573 364.998 184.756C360.346 182.909 355.186 182.235 349.519 182.734C343.853 183.232 338.559 184.903 333.637 187.745C325.519 192.434 320.051 199.076 317.235 207.673C315.17 213.94 315.245 221.509 317.459 230.38L379.107 194.775ZM311.888 137.785L328.251 128.335L319.337 164.743L308.834 170.809L311.888 137.785Z" fill="#F0F4F3" fill-opacity="0.75"/>
<path d="M480.247 86.0226L514.626 214.025L502.912 217.171L498.649 201.298C495.296 208.691 490.917 214.751 485.513 219.478C480.166 224.191 473.814 227.535 466.457 229.511C453.385 233.022 440.94 231.298 429.121 224.341C417.344 217.311 409.632 207.006 405.984 193.425C402.412 180.126 404.026 167.498 410.825 155.54C417.624 143.582 427.587 135.84 440.716 132.314C448.299 130.277 455.579 130.051 462.557 131.635C469.591 133.204 476.295 136.591 482.668 141.796L468.533 89.1687L480.247 86.0226ZM444.727 143.522C438.106 145.301 432.436 148.583 427.715 153.37C422.979 158.1 419.732 163.856 417.974 170.638C416.273 177.405 416.303 184.07 418.066 190.635C419.814 197.142 423.155 202.918 428.09 207.964C433.025 213.009 438.741 216.448 445.24 218.282C451.781 220.044 458.276 220.059 464.727 218.327C471.235 216.579 476.962 213.281 481.909 208.433C486.857 203.586 490.134 197.943 491.742 191.505C493.406 185.051 493.296 178.316 491.411 171.299C488.539 160.604 482.6 152.613 473.597 147.326C464.649 142.024 455.026 140.756 444.727 143.522Z" fill="#F0F4F3" fill-opacity="0.75"/>
<path d="M517.642 82.07C520.445 81.8311 522.923 82.6195 525.077 84.4353C527.231 86.2511 528.428 88.5601 528.667 91.3624C528.901 94.1064 528.11 96.5555 526.294 98.7097C524.478 100.864 522.169 102.06 519.367 102.299C516.623 102.533 514.174 101.742 512.02 99.9266C509.866 98.1108 508.672 95.8309 508.438 93.087C508.199 90.2847 508.987 87.8064 510.803 85.6522C512.619 83.498 514.899 82.3039 517.642 82.07ZM514.857 121.825L527.205 120.773L535.327 216.052L522.979 217.105L514.857 121.825Z" fill="#F0F4F3" fill-opacity="0.75"/>
<path d="M607.368 119.677C622.021 120.942 633.705 127.302 642.42 138.758C650.341 149.204 653.729 161.053 652.585 174.304C651.437 187.614 645.791 198.86 635.648 208.041C625.568 217.169 613.26 221.106 598.724 219.852C584.13 218.593 572.62 212.6 564.194 201.875C555.832 191.097 552.226 179.053 553.374 165.743C554.513 152.55 559.878 141.486 569.471 132.551C580.025 122.699 592.658 118.408 607.368 119.677ZM606.333 131.674C596.176 130.797 587.123 133.809 579.176 140.71C571.23 147.611 566.795 156.403 565.873 167.086C565.279 173.975 566.388 180.54 569.202 186.781C572.016 193.023 576.113 198.022 581.493 201.78C586.879 205.48 592.957 207.621 599.729 208.206C606.501 208.79 612.856 207.721 618.796 204.999C624.741 202.219 629.634 197.995 633.475 192.328C637.316 186.66 639.534 180.382 640.129 173.494C641.05 162.811 638.159 153.387 631.453 145.222C624.806 137.061 616.432 132.545 606.333 131.674Z" fill="#F0F4F3" fill-opacity="0.75"/>
<path d="M721.742 158.625L711.817 164.181C707.366 156.179 702.138 151.276 696.133 149.475C692.317 148.33 688.655 148.608 685.147 150.309C681.696 152.026 679.465 154.569 678.455 157.936C677.562 160.91 677.835 164.081 679.271 167.449C680.691 170.872 684.438 175.513 690.51 181.372C697.902 188.545 702.538 194.707 704.418 199.859C706.225 205.05 706.329 210.312 704.73 215.643C702.474 223.164 697.925 228.743 691.084 232.379C684.243 236.016 676.866 236.648 668.952 234.274C663.677 232.692 658.971 230.026 654.834 226.277C650.754 222.545 647.749 218.187 645.818 213.204L655.751 207.007C659.72 215.6 665.071 220.906 671.806 222.926C676.52 224.34 680.987 224.029 685.208 221.991C689.428 219.954 692.153 216.887 693.382 212.79C694.392 209.422 694.198 206.092 692.801 202.797C691.386 199.559 687.424 194.822 680.914 188.587C673.943 181.847 669.593 175.954 667.865 170.909C666.136 165.864 666.071 160.675 667.671 155.343C669.758 148.384 673.849 143.31 679.944 140.123C686.095 136.951 692.791 136.452 700.03 138.624C708.449 141.149 715.686 147.816 721.742 158.625Z" fill="#F0F4F3" fill-opacity="0.75"/>
<path d="M899.368 209.178L822.449 317.113L812.571 310.074L822.11 296.69C814.272 298.803 806.811 299.278 799.726 298.114C792.688 296.984 786.068 294.209 779.865 289.788C768.842 281.933 762.257 271.233 760.111 257.687C758.046 244.128 761.094 231.622 769.255 220.17C777.246 208.957 788.018 202.171 801.57 199.813C815.122 197.455 827.433 200.221 838.503 208.11C844.897 212.667 849.702 218.141 852.917 224.534C856.18 230.96 857.83 238.287 857.866 246.515L889.49 202.139L899.368 209.178ZM832.405 218.334C826.822 214.355 820.682 212.066 813.986 211.468C807.324 210.821 800.817 211.976 794.465 214.932C788.161 217.922 783.037 222.185 779.092 227.72C775.181 233.208 772.849 239.46 772.093 246.476C771.338 253.493 772.319 260.092 775.037 266.274C777.836 272.442 781.956 277.464 787.396 281.341C792.883 285.251 799.07 287.574 805.957 288.309C812.845 289.044 819.284 287.984 825.275 285.131C831.313 282.311 836.441 277.943 840.657 272.026C847.084 263.007 849.475 253.343 847.829 243.032C846.231 232.755 841.089 224.523 832.405 218.334Z" fill="#F0F4F3" fill-opacity="0.75"/>
<path d="M901.121 364.746L903.523 376.212C896.208 377.845 889.552 378.251 883.554 377.429C877.556 376.607 871.949 374.74 866.733 371.828C861.562 368.879 856.738 364.694 852.26 359.273C842.336 347.255 838.506 334.612 840.771 321.343C843.081 308.036 849.206 297.279 859.145 289.071C868.497 281.348 879.202 277.333 891.26 277.027C906.573 276.615 919.267 282.508 929.341 294.707C939.713 307.267 943.229 321.233 939.89 336.605C937.561 347.495 931.396 357.146 921.395 365.556L866.662 299.278C858.227 306.547 853.436 315.101 852.29 324.939C851.188 334.739 853.846 343.525 860.263 351.296C863.36 355.046 867.019 358.142 871.239 360.584C875.497 363.071 879.736 364.662 883.956 365.356C888.177 366.05 893.899 365.846 901.121 364.746ZM920.977 348.348C924.992 342.904 927.506 337.713 928.519 332.773C929.568 327.879 929.378 322.679 927.947 317.173C926.516 311.668 923.991 306.724 920.372 302.341C914.402 295.113 906.945 290.822 898.001 289.469C891.479 288.472 884.027 289.801 875.645 293.455L920.977 348.348Z" fill="#F0F4F3" fill-opacity="0.75"/>
<path d="M170.107 793.527L182.756 795.565C179.496 811.437 181.742 822.639 189.493 829.171C192.809 831.965 196.565 833.827 200.761 834.758C204.995 835.644 208.969 835.429 212.682 834.114C216.395 832.799 219.479 830.685 221.933 827.772C224.727 824.457 226.344 820.264 226.785 815.195C227.393 808.199 226.202 798.154 223.213 785.062C220.216 771.886 218.88 763.06 219.205 758.583C219.637 750.978 222.137 744.465 226.705 739.043C230.33 734.741 234.664 731.689 239.708 729.886C244.752 728.083 249.983 727.74 255.401 728.858C260.901 729.968 265.847 732.373 270.238 736.073C274.898 740 278.263 744.827 280.332 750.555C282.484 756.276 283.218 764.135 282.533 774.132L269.314 773.452C269.748 765.389 269.304 759.46 267.982 755.664C266.705 751.906 264.52 748.725 261.428 746.119C257.44 742.759 253.15 741.213 248.557 741.48C244.009 741.786 240.244 743.708 237.261 747.248C235.449 749.399 234.141 751.86 233.338 754.631C232.535 757.403 232.321 760.976 232.695 765.352C232.937 767.702 234.419 774.582 237.14 785.993C240.374 799.522 241.506 810.091 240.534 817.701C239.562 825.31 236.981 831.602 232.79 836.576C226.749 843.745 218.768 847.67 208.846 848.351C198.969 849.07 190.132 846.145 182.336 839.575C176.331 834.516 172.228 828.338 170.024 821.041C167.859 813.699 167.886 804.528 170.107 793.527Z" fill="#F0F4F3" fill-opacity="0.75"/>
<path d="M370.708 841.875L326.428 926.63L315.678 921.013L323.288 906.446C315.815 909.615 308.489 911.11 301.312 910.929C294.186 910.776 287.247 908.936 280.496 905.409C268.499 899.142 260.508 889.446 256.522 876.324C252.615 863.176 253.918 850.371 260.429 837.907C266.806 825.703 276.544 817.502 289.644 813.306C302.744 809.11 315.318 810.16 327.367 816.455C334.326 820.09 339.836 824.853 343.899 830.744C348.013 836.662 350.653 843.693 351.818 851.838L359.958 836.258L370.708 841.875ZM322.729 827.419C316.653 824.244 310.257 822.82 303.542 823.146C296.854 823.42 290.568 825.457 284.682 829.257C278.848 833.085 274.357 838.011 271.21 844.035C268.09 850.007 266.637 856.52 266.852 863.574C267.067 870.628 268.945 877.03 272.486 882.78C276.105 888.505 280.875 892.915 286.796 896.008C292.768 899.128 299.216 900.579 306.139 900.362C313.061 900.144 319.294 898.211 324.836 894.562C330.431 890.94 334.91 885.909 338.275 879.469C343.403 869.654 344.444 859.753 341.398 849.766C338.404 839.806 332.181 832.357 322.729 827.419Z" fill="#F0F4F3" fill-opacity="0.75"/>
<path d="M402.24 811.576L413.941 815.382L372.947 941.422L361.246 937.616L402.24 811.576Z" fill="#F0F4F3" fill-opacity="0.75"/>
<path d="M414.084 856.278L426.989 858.506L446.677 932.542L489.781 869.342L502.773 871.585L443.378 958.373L441.213 957.999L414.084 856.278Z" fill="#F0F4F3" fill-opacity="0.75"/>
<path d="M606.448 866.998L611.954 962.465L599.845 963.163L598.899 946.755C594.112 953.311 588.593 958.354 582.34 961.884C576.146 965.41 569.247 967.393 561.643 967.832C548.13 968.611 536.295 964.393 526.138 955.177C516.037 945.9 510.581 934.242 509.771 920.202C508.978 906.456 513.126 894.42 522.214 884.094C531.303 873.768 542.632 868.214 556.204 867.431C564.042 866.979 571.216 868.238 577.726 871.208C584.295 874.174 590.17 878.854 595.351 885.246L594.339 867.697L606.448 866.998ZM557.852 879.221C551.008 879.616 544.788 881.677 539.193 885.404C533.594 889.072 529.244 894.047 526.144 900.33C523.102 906.61 521.777 913.142 522.168 919.928C522.556 926.655 524.653 932.99 528.459 938.933C532.264 944.876 537.162 949.406 543.152 952.523C549.198 955.579 555.555 956.914 562.223 956.529C568.95 956.141 575.229 954.077 581.058 950.337C586.888 946.597 591.244 941.738 594.127 935.761C597.069 929.781 598.331 923.164 597.912 915.911C597.275 904.855 593.085 895.823 585.345 888.816C577.663 881.805 568.498 878.607 557.852 879.221Z" fill="#F0F4F3" fill-opacity="0.75"/>
<path d="M702.583 799.869L742.961 926.108L731.409 929.803L726.401 914.149C723.4 921.691 719.312 927.951 714.137 932.928C709.018 937.887 702.831 941.527 695.576 943.848C682.684 947.971 670.171 946.837 658.038 940.444C645.942 933.978 637.752 924.048 633.468 910.654C629.273 897.539 630.289 884.849 636.517 872.583C642.744 860.318 652.332 852.115 665.279 847.973C672.757 845.581 680.019 845.012 687.064 846.265C694.164 847.501 701.02 850.568 707.632 855.466L691.031 803.564L702.583 799.869ZM669.815 858.98C663.285 861.069 657.775 864.615 653.286 869.619C648.778 874.567 645.806 880.47 644.37 887.327C642.99 894.167 643.335 900.823 645.405 907.297C647.458 913.715 651.068 919.327 656.235 924.134C661.402 928.941 667.275 932.107 673.853 933.632C680.469 935.084 686.958 934.793 693.32 932.758C699.738 930.705 705.304 927.141 710.017 922.065C714.73 916.99 717.737 911.199 719.04 904.692C720.398 898.167 719.97 891.445 717.757 884.524C714.383 873.977 708.074 866.275 698.831 861.418C689.644 856.544 679.972 855.731 669.815 858.98Z" fill="#F0F4F3" fill-opacity="0.75"/>
<path d="M766.244 801.761C778.739 794.003 791.905 792.104 805.744 796.063C818.342 799.69 828.149 807.153 835.165 818.453C842.212 829.803 844.421 842.191 841.792 855.617C839.181 868.963 831.679 879.484 819.284 887.18C806.839 894.908 794.032 896.997 780.863 893.449C767.713 889.821 757.614 882.332 750.567 870.982C743.581 859.733 741.257 847.658 743.593 834.758C746.15 820.549 753.7 809.55 766.244 801.761ZM772.596 811.99C763.935 817.368 758.487 825.2 756.251 835.485C754.016 845.77 755.727 855.467 761.383 864.577C765.03 870.45 769.849 875.045 775.839 878.361C781.829 881.676 788.104 883.229 794.663 883.018C801.192 882.758 807.343 880.835 813.117 877.25C818.892 873.664 823.343 869.004 826.472 863.268C829.569 857.482 830.96 851.169 830.645 844.33C830.33 837.491 828.349 831.135 824.701 825.261C819.045 816.151 811.087 810.333 800.828 807.806C790.618 805.248 781.208 806.643 772.596 811.99Z" fill="#F0F4F3" fill-opacity="0.75"/>
<path d="M817.004 768.701L826.333 760.278L835.698 770.651C834.79 764.05 834.977 758.355 836.259 753.567C837.501 748.735 839.797 744.807 843.146 741.784C845.668 739.506 849.091 737.877 853.414 736.894L855.602 748.892C852.942 749.793 850.96 750.833 849.656 752.011C846.611 754.759 844.814 758.671 844.265 763.746C843.676 768.777 845.018 774.591 848.29 781.189C850.811 786.254 857.627 794.941 868.739 807.249L890.414 831.256L881.085 839.678L817.004 768.701Z" fill="#F0F4F3" fill-opacity="0.75"/>
<path d="M99.4512 501.457V553H94.7344V546.608C92.7292 549.047 90.4733 550.881 87.9668 552.111C85.4831 553.342 82.7601 553.957 79.7979 553.957C74.5342 553.957 70.0339 552.054 66.2969 548.249C62.5827 544.421 60.7256 539.772 60.7256 534.304C60.7256 528.949 62.6055 524.369 66.3652 520.563C70.125 516.758 74.6481 514.855 79.9346 514.855C82.988 514.855 85.7451 515.505 88.2061 516.804C90.6898 518.103 92.8659 520.051 94.7344 522.648V501.457H99.4512ZM80.3105 519.47C77.6445 519.47 75.1836 520.131 72.9277 521.452C70.6719 522.751 68.8717 524.585 67.5273 526.955C66.2057 529.325 65.5449 531.831 65.5449 534.475C65.5449 537.095 66.2171 539.602 67.5615 541.994C68.9059 544.387 70.7061 546.255 72.9619 547.6C75.2406 548.921 77.6787 549.582 80.2764 549.582C82.8968 549.582 85.3805 548.921 87.7275 547.6C90.0745 546.278 91.8747 544.489 93.1279 542.233C94.404 539.978 95.042 537.437 95.042 534.611C95.042 530.305 93.6178 526.704 90.7695 523.811C87.944 520.917 84.4577 519.47 80.3105 519.47ZM141.629 540.661L145.662 542.78C144.34 545.378 142.814 547.474 141.082 549.069C139.35 550.664 137.402 551.883 135.237 552.727C133.073 553.547 130.623 553.957 127.889 553.957C121.827 553.957 117.088 551.975 113.67 548.01C110.252 544.022 108.543 539.522 108.543 534.509C108.543 529.792 109.99 525.588 112.884 521.896C116.552 517.202 121.463 514.855 127.615 514.855C133.95 514.855 139.008 517.259 142.791 522.067C145.48 525.463 146.847 529.701 146.893 534.782H113.465C113.556 539.112 114.935 542.666 117.601 545.446C120.267 548.203 123.559 549.582 127.479 549.582C129.37 549.582 131.204 549.252 132.981 548.591C134.782 547.93 136.308 547.053 137.562 545.959C138.815 544.865 140.171 543.099 141.629 540.661ZM141.629 530.646C140.991 528.094 140.057 526.055 138.826 524.528C137.618 523.002 136.012 521.771 134.007 520.837C132.002 519.903 129.894 519.436 127.684 519.436C124.038 519.436 120.905 520.609 118.284 522.956C116.37 524.665 114.923 527.229 113.943 530.646H141.629ZM174.544 519.88L171.468 523.059C168.916 520.575 166.421 519.333 163.982 519.333C162.433 519.333 161.1 519.846 159.983 520.871C158.89 521.896 158.343 523.093 158.343 524.46C158.343 525.668 158.799 526.818 159.71 527.912C160.621 529.029 162.535 530.339 165.452 531.843C169.007 533.688 171.422 535.466 172.698 537.175C173.951 538.907 174.578 540.855 174.578 543.02C174.578 546.073 173.507 548.659 171.365 550.778C169.223 552.897 166.546 553.957 163.333 553.957C161.191 553.957 159.14 553.49 157.181 552.556C155.244 551.621 153.637 550.334 152.361 548.693L155.369 545.275C157.807 548.033 160.394 549.411 163.128 549.411C165.042 549.411 166.671 548.796 168.016 547.565C169.36 546.335 170.032 544.888 170.032 543.225C170.032 541.857 169.588 540.638 168.699 539.567C167.811 538.519 165.805 537.198 162.684 535.603C159.334 533.871 157.055 532.162 155.848 530.476C154.64 528.789 154.036 526.864 154.036 524.699C154.036 521.874 154.993 519.527 156.907 517.658C158.844 515.79 161.282 514.855 164.222 514.855C167.64 514.855 171.08 516.53 174.544 519.88ZM220.174 501.457V553H215.457V546.608C213.452 549.047 211.196 550.881 208.689 552.111C206.206 553.342 203.483 553.957 200.521 553.957C195.257 553.957 190.757 552.054 187.02 548.249C183.305 544.421 181.448 539.772 181.448 534.304C181.448 528.949 183.328 524.369 187.088 520.563C190.848 516.758 195.371 514.855 200.657 514.855C203.711 514.855 206.468 515.505 208.929 516.804C211.412 518.103 213.589 520.051 215.457 522.648V501.457H220.174ZM201.033 519.47C198.367 519.47 195.906 520.131 193.65 521.452C191.395 522.751 189.594 524.585 188.25 526.955C186.928 529.325 186.268 531.831 186.268 534.475C186.268 537.095 186.94 539.602 188.284 541.994C189.629 544.387 191.429 546.255 193.685 547.6C195.963 548.921 198.401 549.582 200.999 549.582C203.619 549.582 206.103 548.921 208.45 547.6C210.797 546.278 212.597 544.489 213.851 542.233C215.127 539.978 215.765 537.437 215.765 534.611C215.765 530.305 214.34 526.704 211.492 523.811C208.667 520.917 205.18 519.47 201.033 519.47ZM262.352 540.661L266.385 542.78C265.063 545.378 263.536 547.474 261.805 549.069C260.073 550.664 258.125 551.883 255.96 552.727C253.795 553.547 251.346 553.957 248.611 553.957C242.55 553.957 237.811 551.975 234.393 548.01C230.975 544.022 229.266 539.522 229.266 534.509C229.266 529.792 230.713 525.588 233.606 521.896C237.275 517.202 242.186 514.855 248.338 514.855C254.673 514.855 259.731 517.259 263.514 522.067C266.202 525.463 267.57 529.701 267.615 534.782H234.188C234.279 539.112 235.657 542.666 238.323 545.446C240.989 548.203 244.282 549.582 248.201 549.582C250.092 549.582 251.927 549.252 253.704 548.591C255.504 547.93 257.031 547.053 258.284 545.959C259.537 544.865 260.893 543.099 262.352 540.661ZM262.352 530.646C261.714 528.094 260.779 526.055 259.549 524.528C258.341 523.002 256.735 521.771 254.729 520.837C252.724 519.903 250.617 519.436 248.406 519.436C244.76 519.436 241.627 520.609 239.007 522.956C237.093 524.665 235.646 527.229 234.666 530.646H262.352Z" fill="#919191" fill-opacity="0.75"/>
<path d="M875.101 518.479H870.281C870.418 513.511 872.07 509.432 875.237 506.242C878.427 503.052 882.358 501.457 887.029 501.457C891.655 501.457 895.392 502.95 898.24 505.935C901.111 508.92 902.547 512.44 902.547 516.496C902.547 519.344 901.863 522.022 900.496 524.528C899.129 527.012 896.474 530.384 892.532 534.646L880.022 548.146H903.23V553H869.085L888.294 532.253C892.19 528.083 894.72 524.995 895.882 522.99C897.067 520.962 897.659 518.832 897.659 516.599C897.659 513.773 896.6 511.346 894.48 509.318C892.384 507.268 889.809 506.242 886.756 506.242C883.543 506.242 880.866 507.313 878.724 509.455C876.604 511.597 875.397 514.605 875.101 518.479ZM908.05 527.878C908.05 521.247 908.756 516.12 910.169 512.497C911.604 508.874 913.621 506.128 916.219 504.26C918.816 502.391 921.722 501.457 924.935 501.457C928.193 501.457 931.144 502.403 933.787 504.294C936.43 506.162 938.515 508.977 940.042 512.736C941.591 516.496 942.366 521.543 942.366 527.878C942.366 534.19 941.603 539.214 940.076 542.951C938.572 546.688 936.487 549.514 933.821 551.428C931.155 553.319 928.193 554.265 924.935 554.265C921.722 554.265 918.828 553.342 916.253 551.496C913.678 549.65 911.661 546.905 910.203 543.259C908.768 539.59 908.05 534.463 908.05 527.878ZM912.801 527.98C912.801 533.654 913.302 537.95 914.305 540.866C915.33 543.76 916.834 545.959 918.816 547.463C920.799 548.967 922.895 549.719 925.105 549.719C927.339 549.719 929.424 548.99 931.36 547.531C933.297 546.05 934.767 543.84 935.77 540.9C937.023 537.323 937.649 533.016 937.649 527.98C937.649 522.922 937.091 518.786 935.975 515.573C934.858 512.338 933.309 509.979 931.326 508.498C929.367 506.994 927.293 506.242 925.105 506.242C922.872 506.242 920.776 506.994 918.816 508.498C916.857 509.979 915.364 512.178 914.339 515.095C913.313 517.989 912.801 522.284 912.801 527.98ZM957.61 502.722H967.488V553H962.498V507.644H954.603L957.61 502.722ZM1009.15 501.457L1013.29 504.157L999.72 524.733C1001.54 524.118 1003.25 523.811 1004.85 523.811C1008.83 523.811 1012.22 525.257 1015 528.151C1017.78 531.022 1019.17 534.566 1019.17 538.781C1019.17 541.675 1018.5 544.296 1017.15 546.643C1015.81 548.967 1013.89 550.824 1011.41 552.214C1008.95 553.581 1006.29 554.265 1003.45 554.265C1000.69 554.265 998.125 553.604 995.755 552.282C993.408 550.938 991.562 549.058 990.218 546.643C988.873 544.227 988.201 541.641 988.201 538.884C988.201 536.833 988.611 534.68 989.432 532.424C990.275 530.145 991.767 527.411 993.909 524.221L1009.15 501.457ZM1003.65 528.22C1000.73 528.22 998.239 529.257 996.165 531.33C994.114 533.381 993.089 535.876 993.089 538.815C993.089 541.732 994.114 544.227 996.165 546.301C998.239 548.352 1000.73 549.377 1003.65 549.377C1006.57 549.377 1009.05 548.352 1011.1 546.301C1013.18 544.227 1014.21 541.732 1014.21 538.815C1014.21 535.876 1013.18 533.381 1011.1 531.33C1009.05 529.257 1006.57 528.22 1003.65 528.22Z" fill="#919191" fill-opacity="0.75"/>
<path d="M351 505V329L392.5 323V513L351 505Z" fill="#F0F4F3" fill-opacity="0.75" stroke="#919191" stroke-opacity="0.75"/>
<path d="M551.5 715.5V539.5L593 533.5V723.5L551.5 715.5Z" fill="#F0F4F3" fill-opacity="0.75" stroke="#919191" stroke-opacity="0.75"/>
<path d="M398.5 505V329L440 323V513L398.5 505Z" fill="#F0F4F3" fill-opacity="0.75" stroke="#919191" stroke-opacity="0.75"/>
<path d="M599 715.5V539.5L640.5 533.5V723.5L599 715.5Z" fill="#F0F4F3" fill-opacity="0.75" stroke="#919191" stroke-opacity="0.75"/>
<path d="M446.5 505V329L488 323V513L446.5 505Z" fill="#F0F4F3" fill-opacity="0.75" stroke="#919191" stroke-opacity="0.75"/>
<path d="M647 715.5V539.5L688.5 533.5V723.5L647 715.5Z" fill="#F0F4F3" fill-opacity="0.75" stroke="#919191" stroke-opacity="0.75"/>
<path d="M494.5 505V329L536 323V513L494.5 505Z" fill="#F0F4F3" fill-opacity="0.75" stroke="#919191" stroke-opacity="0.75"/>
<path d="M695 715.5V539.5L736.5 533.5V723.5L695 715.5Z" fill="#F0F4F3" fill-opacity="0.75" stroke="#919191" stroke-opacity="0.75"/>
<path d="M566.5 519L551.5 453.5H736.5L723.5 519H566.5Z" fill="#F0F4F3" fill-opacity="0.75" stroke="#919191" stroke-opacity="0.75"/>
<path d="M521 729.5L536 664H351L364 729.5H521Z" fill="#F0F4F3" fill-opacity="0.75" stroke="#919191" stroke-opacity="0.75"/>
<path d="M566.5 323.5L551.5 389H736.5L723.5 323.5H566.5Z" fill="#F0F4F3" fill-opacity="0.75" stroke="#919191" stroke-opacity="0.75"/>
<path d="M521 534L536 599.5H351L364 534H521Z" fill="#F0F4F3" fill-opacity="0.75" stroke="#919191" stroke-opacity="0.75"/>
</svg>
